<?xml version="1.0" encoding="utf-8"?>
<!-- Generator: Adobe Illustrator 25.0.1, SVG Export Plug-In . SVG Version: 6.00 Build 0)  -->
<svg version="1.1" id="Ebene_1" xmlns="http://www.w3.org/2000/svg" xmlns:xlink="http://www.w3.org/1999/xlink" x="0px" y="0px"
	 viewBox="0 0 500 500" style="enable-background:new 0 0 500 500;" xml:space="preserve">
<style type="text/css">
	.st0{fill:none;}
	.st1{fill:#FF0000;}
	.st2{fill:#00FFFF;}
	.st3{fill:#FFFFFF;}
</style>
<g>
	<path class="st0" d="M118.1,238.47v-29.29c0-4.46-1.07-7.53-3.21-9.21c-2.14-1.67-6.09-2.51-11.86-2.51H78.14v52.73h24.89
		c5.76,0,9.72-0.84,11.86-2.51C117.03,246,118.1,242.93,118.1,238.47z"/>
	<path class="st1" d="M110.78,197.46h-7.75c5.76,0,9.72,0.84,11.86,2.51c2.14,1.67,3.21,4.74,3.21,9.21v29.29
		c0,4.46-1.07,7.53-3.21,9.21c-2.14,1.67-6.09,2.51-11.86,2.51h7.75c5.76,0,9.72-0.84,11.86-2.51c2.14-1.67,3.21-4.74,3.21-9.21
		v-29.29c0-4.46-1.07-7.53-3.21-9.21C120.5,198.29,116.55,197.46,110.78,197.46z"/>
	<polygon class="st1" points="98.03,281.43 124.51,337.51 132.26,337.51 105.78,281.43 	"/>
	<rect x="28.82" y="163.14" class="st1" width="7.75" height="174.37"/>
	<path class="st1" d="M293.8,304.73c4.66-0.74,9.02-1.65,13.12-2.71l-0.23-2.18c-6.14,2.05-13.02,3.68-20.65,4.88
		c-6.22,0.99-12.51,1.55-18.85,1.73c1.15,0.03,2.29,0.08,3.45,0.08C278.46,306.54,286.17,305.94,293.8,304.73z"/>
	<path class="st1" d="M282.92,194.25c-4.65-0.46-8.47-0.7-11.44-0.7c-1.53,0-2.96,0.04-4.36,0.09c2.33,0.11,4.99,0.3,8.05,0.6
		c4.65,0.47,9.44,1.03,14.37,1.67c4.93,0.65,9.44,1.63,13.53,2.93l0.3-1.88c-1.96-0.4-3.96-0.77-6.08-1.05
		C292.36,195.27,287.57,194.71,282.92,194.25z"/>
	<path class="st1" d="M212.89,322.45c-5.21-6.88-8.93-16.18-11.16-27.9c-2.23-11.72-3.35-26.41-3.35-44.08
		c0-17.67,1.16-32.46,3.49-44.36c2.32-11.9,6.28-21.3,11.86-28.18c5.58-6.88,13.11-11.76,22.6-14.65c8.3-2.52,18.59-3.94,30.88-4.26
		c-0.77-0.01-1.6-0.07-2.36-0.07c-14.7,0-26.78,1.44-36.27,4.33c-9.49,2.89-17.02,7.77-22.6,14.65
		c-5.58,6.88-9.53,16.28-11.86,28.18c-2.33,11.9-3.49,26.69-3.49,44.36c0,17.67,1.12,32.36,3.35,44.08
		c2.23,11.72,5.95,21.02,11.16,27.9c5.21,6.88,12.32,11.81,21.34,14.79c9.02,2.97,20.41,4.46,34.18,4.46c1.33,0,2.58-0.04,3.87-0.05
		c-12.03-0.26-22.14-1.72-30.3-4.41C225.21,334.26,218.1,329.33,212.89,322.45z"/>
	<path class="st1" d="M426.88,304.03v-36.55l-48.27-6.7v-22.04l48.27-8.09v-34.32c-5.21-1.3-13.58-1.95-25.11-1.95
		c-0.73,0-1.51,0.05-2.25,0.06c8.71,0.18,15.27,0.81,19.61,1.89v34.32l-48.27,8.09v22.04l48.27,6.7v36.55
		c-4.73,1.11-12.37,1.73-22.85,1.9c0.61,0,1.26,0.05,1.86,0.05C411.72,305.98,421.3,305.34,426.88,304.03z"/>
	<path class="st1" d="M376.24,161.05c9.32-1.19,18.38-1.85,27.22-2.02c-1.11-0.02-2.17-0.08-3.3-0.08c-10.23,0-20.79,0.7-31.67,2.09
		c-10.88,1.39-21.25,3.4-31.11,6l5.3,32.64c2.41-0.53,4.94-1.01,7.51-1.47l-5.06-31.18C354.99,164.44,365.36,162.44,376.24,161.05z"
		/>
	<path class="st1" d="M340.95,333.33l5.33-31.18c-2.57-0.45-5.09-0.93-7.5-1.46l-5.58,32.64c9.67,2.61,19.95,4.6,30.83,6
		c10.88,1.4,21.34,2.09,31.39,2.09c1.51,0,2.97-0.03,4.42-0.06c-9.03-0.14-18.37-0.79-28.06-2.04
		C360.9,337.93,350.62,335.93,340.95,333.33z"/>
	<path class="st2" d="M156.96,267.9c8.46-9.02,12.69-23.39,12.69-43.1c0-15.07-1.91-27.11-5.72-36.13
		c-3.81-9.02-9.95-15.53-18.42-19.53c-8.47-4-19.67-6-33.62-6h-7.75c13.95,0,25.15,2,33.62,6c8.46,4,14.6,10.51,18.42,19.53
		c3.81,9.03,5.72,21.06,5.72,36.13c0,19.72-4.23,34.09-12.69,43.1c-2.65,2.83-5.87,5.16-9.54,7.1l29.77,62.51h7.75L147.42,275
		C151.08,273.06,154.3,270.73,156.96,267.9z"/>
	<rect x="70.39" y="281.43" class="st2" width="7.75" height="56.08"/>
	<rect x="70.39" y="197.46" class="st2" width="7.75" height="52.73"/>
	<path class="st3" d="M149.21,267.9c8.46-9.02,12.69-23.39,12.69-43.1c0-15.07-1.91-27.11-5.72-36.13
		c-3.81-9.02-9.95-15.53-18.42-19.53c-8.47-4-19.67-6-33.62-6H36.57v174.37h33.82v-56.08h7.75h19.89h7.75l26.49,56.08h37.17
		L139.67,275C143.33,273.06,146.55,270.73,149.21,267.9z M125.85,238.47c0,4.46-1.07,7.53-3.21,9.21
		c-2.14,1.67-6.09,2.51-11.86,2.51h-7.75H78.14h-7.75v-52.73h7.75h24.89h7.75c5.76,0,9.72,0.84,11.86,2.51
		c2.14,1.67,3.21,4.74,3.21,9.21V238.47z"/>
	<path class="st2" d="M306.92,302.02l3.4,32.42c-6.89,2.61-14.28,4.46-22.18,5.58c-6.9,0.97-14.81,1.5-23.61,1.62
		c1.28,0.03,2.56,0.05,3.88,0.05c10.42,0,19.57-0.56,27.48-1.67c7.9-1.12,15.3-2.97,22.18-5.58l-3.63-34.6
		C312.06,300.64,309.53,301.35,306.92,302.02z"/>
	<path class="st2" d="M295.96,162.16c5.11,1.02,9.25,2.09,12.41,3.21l-5,31.6c2.61,0.53,5.12,1.14,7.45,1.88l5.3-33.48
		c-3.16-1.12-7.3-2.19-12.41-3.21c-5.12-1.02-10.42-1.81-15.9-2.37c-5.49-0.56-10.56-0.84-15.21-0.84c-1.84,0-3.64,0.02-5.39,0.07
		c4.01,0.08,8.25,0.3,12.85,0.77C285.54,160.35,290.84,161.14,295.96,162.16z"/>
	<path class="st2" d="M241.69,197.46c-4.28,2.61-6.42,8.09-6.42,16.46v89.56c4.28,1.12,8.74,1.91,13.39,2.37
		c4.65,0.47,9.39,0.7,14.23,0.7c1.44,0,2.87-0.04,4.3-0.08c-3.64-0.08-7.25-0.26-10.78-0.61c-4.65-0.46-9.12-1.26-13.39-2.37v-89.56
		c0-8.37,2.14-13.85,6.42-16.46c3.65-2.22,9.56-3.49,17.68-3.81c-1.22-0.05-2.37-0.09-3.39-0.09
		C253.31,193.55,245.97,194.85,241.69,197.46z"/>
	<path class="st3" d="M310.32,334.44l-3.4-32.42c-4.11,1.05-8.46,1.97-13.12,2.71c-7.63,1.21-15.34,1.81-23.16,1.81
		c-1.16,0-2.3-0.06-3.45-0.08c-1.43,0.04-2.86,0.08-4.3,0.08c-4.84,0-9.58-0.23-14.23-0.7c-4.65-0.46-9.12-1.26-13.39-2.37v-89.56
		c0-8.37,2.14-13.85,6.42-16.46c4.28-2.6,11.62-3.91,22.04-3.91c1.02,0,2.17,0.04,3.39,0.09c1.39-0.06,2.83-0.09,4.36-0.09
		c2.97,0,6.79,0.23,11.44,0.7c4.65,0.47,9.44,1.03,14.37,1.67c2.12,0.28,4.12,0.65,6.08,1.05l5-31.6c-3.16-1.12-7.3-2.19-12.41-3.21
		c-5.12-1.02-10.42-1.81-15.9-2.37c-4.6-0.47-8.84-0.69-12.85-0.77c-12.29,0.32-22.58,1.74-30.88,4.26
		c-9.49,2.89-17.02,7.77-22.6,14.65c-5.58,6.88-9.53,16.28-11.86,28.18c-2.33,11.9-3.49,26.69-3.49,44.36
		c0,17.67,1.12,32.36,3.35,44.08c2.23,11.72,5.95,21.02,11.16,27.9c5.21,6.88,12.32,11.81,21.34,14.79
		c8.15,2.69,18.27,4.15,30.3,4.41c8.8-0.12,16.71-0.65,23.61-1.62C296.05,338.91,303.44,337.05,310.32,334.44z"/>
	<path class="st2" d="M390.39,305.98c2.06,0,4.01-0.02,5.89-0.05c-7.82-0.06-15.96-0.48-24.5-1.34c-9.21-0.93-17.62-2.23-25.25-3.91
		l-0.25,1.46c5.56,0.98,11.45,1.81,17.75,2.44C373.23,305.52,382.02,305.98,390.39,305.98z"/>
	<path class="st2" d="M446.69,250.47v-1.4c8.18-4.28,14.37-10.13,18.55-17.58c4.19-7.44,6.28-16.27,6.28-26.51
		c0-15.62-5.26-27.2-15.76-34.73c-10.51-7.53-26.46-11.3-47.85-11.3c-1.47,0-2.96,0.05-4.45,0.08c19.7,0.38,34.59,4.09,44.54,11.22
		c10.5,7.53,15.76,19.11,15.76,34.73c0,10.23-2.09,19.07-6.28,26.51c-4.19,7.44-10.37,13.3-18.55,17.58v1.4
		c8.56,3.72,14.83,9.02,18.83,15.9c4,6.88,6,15.44,6,25.67c0,11.72-2.33,21.25-6.97,28.6c-4.65,7.35-12,12.65-22.04,15.9
		c-9.11,2.95-20.76,4.55-34.92,4.82c1.11,0.02,2.23,0.06,3.33,0.06c16.18,0,29.29-1.63,39.34-4.88c10.04-3.25,17.39-8.55,22.04-15.9
		c4.65-7.34,6.97-16.88,6.97-28.6c0-10.23-2-18.78-6-25.67C461.52,259.49,455.24,254.19,446.69,250.47z"/>
	<path class="st2" d="M367.93,195.78c-6.29,0.64-12.18,1.46-17.74,2.44l0.24,1.47c7.62-1.67,16.04-2.97,25.25-3.91
		c8.39-0.84,16.3-1.26,23.84-1.33c-1.76-0.04-3.57-0.06-5.5-0.06C385.83,194.39,377.14,194.85,367.93,195.78z"/>
	<path class="st3" d="M456.79,320.63c4.65-7.34,6.97-16.88,6.97-28.6c0-10.23-2-18.78-6-25.67c-4-6.88-10.28-12.18-18.83-15.9v-1.4
		c8.18-4.28,14.37-10.13,18.55-17.58c4.19-7.44,6.28-16.27,6.28-26.51c0-15.62-5.26-27.2-15.76-34.73
		c-9.95-7.13-24.84-10.84-44.54-11.22c-8.84,0.17-17.9,0.82-27.22,2.02c-10.88,1.39-21.25,3.4-31.11,6l5.06,31.18
		c5.55-0.98,11.45-1.8,17.74-2.44c9.21-0.93,17.9-1.39,26.09-1.39c1.93,0,3.74,0.03,5.5,0.06c0.74-0.01,1.52-0.06,2.25-0.06
		c11.53,0,19.9,0.65,25.11,1.95v34.32l-48.27,8.09v22.04l48.27,6.7v36.55c-5.58,1.3-15.16,1.95-28.74,1.95
		c-0.61,0-1.25-0.05-1.86-0.05c-1.88,0.03-3.82,0.05-5.89,0.05c-8.37,0-17.16-0.46-26.37-1.39c-6.3-0.64-12.19-1.46-17.75-2.44
		l-5.33,31.18c9.67,2.61,19.95,4.6,30.83,6c9.69,1.24,19.03,1.9,28.06,2.04c14.15-0.28,25.81-1.88,34.92-4.82
		C444.8,333.28,452.14,327.98,456.79,320.63z"/>
</g>
</svg>
