<?xml version="1.0" encoding="utf-8"?>
<!-- Generator: Adobe Illustrator 25.0.1, SVG Export Plug-In . SVG Version: 6.00 Build 0)  -->
<svg version="1.1" id="Ebene_1" xmlns="http://www.w3.org/2000/svg" xmlns:xlink="http://www.w3.org/1999/xlink" x="0px" y="0px"
	 viewBox="0 0 500 500" style="enable-background:new 0 0 500 500;" xml:space="preserve">
<style type="text/css">
	.st0{fill:none;}
	.st1{fill:#00FFFF;}
	.st2{fill:#FF0000;}
	.st3{fill:#FFFFFF;}
	.st4{fill:#333333;}
</style>
<g>
	<path class="st0" d="M322.82,416.53v-15.67c0-2.39-0.57-4.03-1.72-4.92c-1.14-0.9-3.26-1.34-6.34-1.34h-14.03v28.2h14.03
		c3.08,0,5.2-0.45,6.34-1.34C322.25,420.56,322.82,418.92,322.82,416.53z"/>
	<path class="st0" d="M184.88,222.65c1.49,1.04,4.67,1.57,9.55,1.57h18.96V172.3c0-3.18-0.87-5.3-2.61-6.34
		c-1.74-1.04-5.1-1.57-10.07-1.57h-18.06v51.92C182.64,219.49,183.38,221.6,184.88,222.65z"/>
	<path class="st0" d="M83.55,79.94c3.08,0,5.2-0.45,6.34-1.34c1.14-0.9,1.72-2.54,1.72-4.92V58.01c0-2.39-0.57-4.03-1.72-4.92
		c-1.14-0.9-3.26-1.34-6.34-1.34H69.52v28.2H83.55z"/>
	<path class="st0" d="M249.65,329.1v-50.43h-19.11c-4.58,0-7.73,0.7-9.47,2.09c-1.74,1.39-2.61,3.83-2.61,7.31v50.43h18.96
		c4.57,0,7.76-0.69,9.55-2.09C248.76,335.02,249.65,332.58,249.65,329.1z"/>
	<rect x="66.1" y="51.74" class="st1" width="3.42" height="28.2"/>
	<path class="st1" d="M111.97,47.04c2.04,4.83,3.06,11.26,3.06,19.32c0,10.54-2.26,18.23-6.79,23.05c-1.42,1.52-3.12,2.79-5.08,3.83
		l15.9,33.39h3.42l-15.9-33.39c1.97-1.04,3.66-2.32,5.08-3.83c4.52-4.82,6.79-12.51,6.79-23.05c0-8.06-1.02-14.5-3.06-19.32
		c-2.04-4.82-5.32-8.3-9.85-10.44c-4.53-2.14-10.52-3.21-17.98-3.21h-3.42c7.46,0,13.45,1.07,17.98,3.21
		C106.65,38.74,109.93,42.22,111.97,47.04z"/>
	<rect x="66.1" y="96.65" class="st1" width="3.42" height="29.99"/>
	<path class="st1" d="M249.73,51.74c-2.29,1.39-3.43,4.33-3.43,8.8v47.89c2.29,0.6,4.67,1.02,7.16,1.27
		c2.49,0.25,5.02,0.37,7.61,0.37c0.46,0,0.93-0.02,1.39-0.03c-1.89-0.05-3.75-0.16-5.58-0.35c-2.49-0.25-4.87-0.67-7.16-1.27V60.55
		c0-4.48,1.14-7.41,3.43-8.8c2.01-1.22,5.29-1.91,9.84-2.06c-0.53-0.02-1.02-0.03-1.47-0.03C255.94,49.66,252.01,50.35,249.73,51.74
		z"/>
	<path class="st1" d="M278.74,32.87c2.73,0.55,4.95,1.12,6.64,1.72l-2.7,17.03c1.14,0.25,2.24,0.54,3.28,0.87l2.83-17.9
		c-1.69-0.6-3.9-1.17-6.64-1.72c-2.74-0.55-5.57-0.97-8.5-1.27c-2.93-0.3-5.65-0.45-8.13-0.45c-0.63,0-1.23,0.01-1.84,0.02
		c2.04,0.05,4.23,0.19,6.55,0.42C273.17,31.9,276.01,32.33,278.74,32.87z"/>
	<path class="st1" d="M274.57,127.98c-3.66,0.52-7.83,0.81-12.5,0.88c0.41,0.01,0.81,0.02,1.22,0.02c5.57,0,10.47-0.3,14.7-0.9
		c4.23-0.6,8.18-1.59,11.86-2.98l-1.94-18.5c-1.06,0.35-2.18,0.68-3.32,0.98l1.84,17.52C282.74,126.39,278.79,127.38,274.57,127.98z
		"/>
	<path class="st1" d="M454.54,55.77c0,5.47-1.12,10.2-3.36,14.17c-2.24,3.98-5.54,7.11-9.92,9.4v0.75c4.57,1.99,7.93,4.83,10.07,8.5
		c2.14,3.68,3.21,8.26,3.21,13.73c0,6.27-1.24,11.36-3.73,15.29c-2.49,3.93-6.42,6.76-11.79,8.5c-4.96,1.6-11.33,2.46-19.08,2.59
		c0.49,0.01,0.98,0.03,1.47,0.03c8.65,0,15.67-0.87,21.04-2.61c5.37-1.74,9.3-4.57,11.79-8.5c2.49-3.93,3.73-9.03,3.73-15.29
		c0-5.47-1.07-10.04-3.21-13.73c-2.14-3.68-5.5-6.51-10.07-8.5v-0.75c4.38-2.29,7.68-5.42,9.92-9.4c2.24-3.98,3.36-8.7,3.36-14.17
		c0-8.35-2.81-14.55-8.43-18.57c-5.62-4.03-14.15-6.04-25.59-6.04c-0.45,0-0.91,0.02-1.36,0.02c10.41,0.23,18.25,2.24,23.53,6.02
		C451.73,41.23,454.54,47.42,454.54,55.77z"/>
	<path class="st1" d="M403.29,50.85c-3.63,0.37-7.02,0.84-10.19,1.42l0.11,0.67c4.08-0.9,8.58-1.59,13.5-2.09
		c4.49-0.45,8.73-0.69,12.77-0.73c-0.72-0.01-1.47-0.02-2.24-0.02C412.86,50.1,408.22,50.35,403.29,50.85z"/>
	<path class="st1" d="M415.3,109.78c0.83,0,1.62-0.01,2.39-0.01c-4.17-0.03-8.52-0.27-13.07-0.73c-4.92-0.5-9.42-1.19-13.5-2.09
		l-0.11,0.66c3.17,0.58,6.57,1.06,10.19,1.42C406.13,109.53,410.83,109.78,415.3,109.78z"/>
	<path class="st1" d="M111.3,170.65c0,3.78-0.35,7.11-1.05,10c-0.7,2.89-2.01,5.52-3.95,7.91c-1.94,2.39-4.75,4.72-8.43,7.01
		c-3.68,2.29-8.5,4.8-14.47,7.53c-5.97,2.74-13.33,5.89-22.08,9.47v10h3.42v-10c8.75-3.58,16.11-6.74,22.08-9.47
		c5.97-2.73,10.79-5.24,14.47-7.53c3.68-2.29,6.49-4.62,8.43-7.01s3.26-5.02,3.95-7.91c0.7-2.88,1.05-6.21,1.05-10
		c0-8.65-2.86-15.02-8.58-19.1c-5.72-4.08-14.6-6.12-26.63-6.12c-0.45,0-0.9,0.02-1.35,0.02c10.98,0.22,19.17,2.26,24.55,6.09
		C108.44,155.64,111.3,162,111.3,170.65z"/>
	<rect x="109.66" y="222.57" class="st1" width="3.42" height="18.35"/>
	<path class="st1" d="M59.53,165.13c-3.86,0.38-7.58,0.88-11.15,1.48l0.1,0.61c4.57-0.9,9.4-1.59,14.47-2.09
		c4.68-0.46,9-0.7,13-0.73c-0.76-0.01-1.56-0.01-2.39-0.01C69.28,164.39,64.6,164.64,59.53,165.13z"/>
	<path class="st1" d="M229.05,155.06c2.98,3.53,5.07,8.48,6.27,14.84c1.19,6.37,1.79,14.52,1.79,24.47c0,7.96-0.35,14.75-1.04,20.36
		c-0.7,5.62-1.94,10.29-3.73,14.02c-1.79,3.73-4.23,6.64-7.31,8.73c-3.08,2.09-6.99,3.55-11.71,4.4c-4.3,0.77-9.37,1.18-15.19,1.25
		c0.56,0.01,1.11,0.01,1.68,0.01c6.56,0,12.21-0.42,16.93-1.27c4.72-0.85,8.63-2.31,11.71-4.4c3.08-2.09,5.52-5,7.31-8.73
		c1.79-3.73,3.03-8.4,3.73-14.02c0.7-5.62,1.04-12.41,1.04-20.36c0-9.94-0.6-18.1-1.79-24.47c-1.19-6.36-3.28-11.31-6.27-14.84
		c-2.98-3.53-7.11-6.02-12.38-7.46c-5.27-1.44-12.04-2.16-20.29-2.16c-0.58,0-1.14,0.01-1.71,0.02c7.48,0.09,13.68,0.81,18.58,2.14
		C221.93,149.05,226.06,151.54,229.05,155.06z"/>
	<path class="st1" d="M179.22,216.31c0,3.18,0.75,5.3,2.24,6.34c1.49,1.04,4.67,1.57,9.55,1.57h3.42c-4.87,0-8.06-0.52-9.55-1.57
		c-1.49-1.04-2.24-3.16-2.24-6.34v-51.92h-3.42V216.31z"/>
	<rect x="350.07" y="222.57" class="st1" width="3.42" height="18.35"/>
	<path class="st1" d="M351.71,170.65c0,3.78-0.35,7.11-1.04,10c-0.7,2.89-2.01,5.52-3.95,7.91c-1.94,2.39-4.75,4.72-8.43,7.01
		c-3.68,2.29-8.5,4.8-14.47,7.53c-5.97,2.74-13.33,5.89-22.08,9.47v10h3.42v-10c8.75-3.58,16.11-6.74,22.08-9.47
		c5.97-2.73,10.79-5.24,14.47-7.53c3.68-2.29,6.49-4.62,8.43-7.01c1.94-2.39,3.26-5.02,3.95-7.91c0.7-2.88,1.04-6.21,1.04-10
		c0-8.65-2.86-15.02-8.58-19.1c-5.72-4.08-14.6-6.12-26.63-6.12c-0.45,0-0.9,0.02-1.35,0.02c10.98,0.22,19.17,2.26,24.55,6.09
		C348.85,155.64,351.71,162,351.71,170.65z"/>
	<path class="st1" d="M299.95,165.13c-3.86,0.38-7.58,0.88-11.15,1.48l0.1,0.6c4.57-0.9,9.4-1.59,14.47-2.09
		c4.68-0.46,9-0.7,13-0.73c-0.76-0.01-1.56-0.01-2.4-0.01C309.69,164.39,305.02,164.64,299.95,165.13z"/>
	<polygon class="st1" points="394.71,169.43 394.71,169.76 416.35,167.7 416.35,167.37 	"/>
	<rect x="456.78" y="222.57" class="st1" width="3.42" height="18.35"/>
	<polygon class="st1" points="442,222.57 442,145.44 438.58,145.77 438.58,222.57 	"/>
	<rect x="121.74" y="261.97" class="st1" width="3.42" height="93.24"/>
	<path class="st1" d="M67.74,299.56h-0.9v55.65h3.42v-48.06c-0.69-1.29-1.21-2.38-1.56-3.26C68.16,302.5,67.84,301.05,67.74,299.56z
		"/>
	<path class="st1" d="M97.8,313.21c0.55,1.44,0.82,2.91,0.82,4.4h0.9v-7.93c-0.36-0.65-0.76-1.33-1.2-2.07l-28.35-45.65h-3.42
		l28.35,45.65C96.28,309.91,97.25,311.77,97.8,313.21z"/>
	<path class="st1" d="M221.07,280.76c1.74-1.39,4.9-2.09,9.47-2.09h-3.42c-4.58,0-7.73,0.7-9.47,2.09
		c-1.74,1.39-2.61,3.83-2.61,7.31v50.43h3.42v-50.43C218.46,284.59,219.33,282.16,221.07,280.76z"/>
	<path class="st1" d="M275.08,284.57c-1.25-6.31-3.41-11.29-6.49-14.92c-3.08-3.63-7.29-6.19-12.61-7.68
		c-5.32-1.49-12.06-2.24-20.22-2.24c-0.58,0-1.14,0.01-1.71,0.02c7.38,0.1,13.56,0.83,18.5,2.22c5.32,1.49,9.52,4.05,12.61,7.68
		c3.08,3.63,5.24,8.6,6.49,14.92c1.24,6.32,1.86,14.35,1.86,24.09c0,9.75-0.62,17.75-1.86,24.02c-1.25,6.27-3.41,11.21-6.49,14.84
		c-3.08,3.63-7.29,6.19-12.61,7.68c-4.94,1.39-11.12,2.12-18.5,2.22c0.57,0.01,1.13,0.02,1.71,0.02c8.15,0,14.89-0.75,20.22-2.24
		c5.32-1.49,9.52-4.05,12.61-7.68c3.08-3.63,5.24-8.58,6.49-14.84c1.24-6.27,1.86-14.27,1.86-24.02
		C276.94,298.92,276.32,290.89,275.08,284.57z"/>
	<polygon class="st1" points="369.35,334.17 370.57,328.22 360.99,261.97 357.57,261.97 368.01,334.17 	"/>
	<polygon class="st1" points="442.75,355.21 446.17,355.21 460.2,261.97 456.78,261.97 	"/>
	<polygon class="st1" points="383.08,355.21 386.5,355.21 397.8,296.86 396.08,288.06 	"/>
	<polygon class="st1" points="424.1,334.17 424.97,328.22 411.41,261.97 407.99,261.97 422.76,334.17 	"/>
	<rect x="66.1" y="376.25" class="st1" width="3.42" height="38.64"/>
	<rect x="119.21" y="376.25" class="st1" width="3.42" height="93.24"/>
	<rect x="66.1" y="431.45" class="st1" width="3.42" height="38.04"/>
	<polygon class="st1" points="230.18,394.6 233.01,376.25 229.59,376.25 226.76,394.6 	"/>
	<rect x="229.44" y="451.15" class="st1" width="3.42" height="18.35"/>
	<rect x="191.25" y="431.15" class="st1" width="3.42" height="19.99"/>
	<rect x="191.25" y="394.6" class="st1" width="3.42" height="19.99"/>
	<rect x="223.92" y="414.6" class="st1" width="3.42" height="16.56"/>
	<path class="st1" d="M342.88,432.27c4.52-4.82,6.79-12.51,6.79-23.05c0-8.06-1.02-14.49-3.06-19.32c-2.04-4.82-5.32-8.3-9.85-10.44
		c-4.53-2.14-10.52-3.21-17.98-3.21h-3.42c7.46,0,13.45,1.07,17.98,3.21c4.53,2.14,7.81,5.62,9.85,10.44
		c2.04,4.83,3.06,11.26,3.06,19.32c0,10.54-2.26,18.23-6.79,23.05c-1.42,1.52-3.12,2.79-5.08,3.83l15.9,33.39h3.42l-15.9-33.39
		C339.76,435.07,341.46,433.79,342.88,432.27z"/>
	<rect x="297.31" y="394.6" class="st1" width="3.42" height="28.2"/>
	<rect x="297.31" y="439.51" class="st1" width="3.42" height="29.99"/>
	<rect x="454.24" y="451.15" class="st1" width="3.42" height="18.35"/>
	<rect x="416.05" y="394.6" class="st1" width="3.42" height="19.99"/>
	<rect x="416.05" y="431.15" class="st1" width="3.42" height="19.99"/>
	<polygon class="st1" points="454.98,394.6 457.81,376.25 454.39,376.25 451.56,394.6 	"/>
	<rect x="448.72" y="414.6" class="st1" width="3.42" height="16.56"/>
	<rect x="43.87" y="33.39" class="st2" width="3.42" height="93.24"/>
	<polygon class="st2" points="80.87,96.65 95.04,126.64 98.46,126.64 84.3,96.65 	"/>
	<path class="st2" d="M91.61,58.01v15.66c0,2.39-0.57,4.03-1.72,4.92c-1.14,0.89-3.26,1.34-6.34,1.34h3.42
		c3.08,0,5.2-0.45,6.34-1.34c1.14-0.9,1.72-2.54,1.72-4.92V58.01c0-2.39-0.57-4.03-1.72-4.92c-1.14-0.9-3.26-1.34-6.34-1.34h-3.42
		c3.08,0,5.2,0.45,6.34,1.34C91.03,53.98,91.61,55.62,91.61,58.01z"/>
	<path class="st3" d="M66.1,126.64V96.65h3.42h11.36h3.42l14.16,29.99h20.6l-15.9-33.39c1.97-1.04,3.66-2.32,5.08-3.83
		c4.52-4.82,6.79-12.51,6.79-23.05c0-8.06-1.02-14.5-3.06-19.32c-2.04-4.82-5.32-8.3-9.85-10.44c-4.53-2.14-10.52-3.21-17.98-3.21
		H47.29v93.24H66.1z M66.1,51.74h3.42h14.03h3.42c3.08,0,5.2,0.45,6.34,1.34c1.14,0.89,1.72,2.54,1.72,4.92v15.66
		c0,2.39-0.57,4.03-1.72,4.92c-1.14,0.89-3.26,1.34-6.34,1.34h-3.42H69.52H66.1V51.74z"/>
	<path class="st2" d="M276.87,109.11c2.76-0.44,5.32-0.99,7.72-1.63l-0.1-0.98c-3.28,1.1-6.96,1.96-11.04,2.61
		c-3.63,0.58-7.29,0.88-10.99,0.94c0.67,0.02,1.35,0.03,2.03,0.03C268.66,110.08,272.79,109.75,276.87,109.11z"/>
	<path class="st2" d="M271.05,50.03c-2.49-0.25-4.53-0.37-6.12-0.37c-0.67,0-1.32,0.01-1.95,0.03c1.32,0.05,2.87,0.16,4.64,0.34
		c2.49,0.25,5.05,0.55,7.68,0.89c2.63,0.35,5.05,0.87,7.24,1.57l0.14-0.87c-1.26-0.28-2.57-0.51-3.95-0.69
		C276.1,50.58,273.53,50.28,271.05,50.03z"/>
	<path class="st2" d="M230.18,118.58c2.78,3.68,6.59,6.32,11.41,7.91c4.82,1.59,10.91,2.39,18.28,2.39c0.75,0,1.48-0.01,2.2-0.02
		c-6.81-0.09-12.5-0.87-17.05-2.37c-4.83-1.59-8.63-4.23-11.41-7.91c-2.79-3.68-4.77-8.65-5.97-14.92
		c-1.19-6.27-1.79-14.12-1.79-23.57c0-9.45,0.62-17.35,1.87-23.72c1.24-6.36,3.36-11.39,6.34-15.07c2.98-3.68,7.01-6.29,12.08-7.83
		c4.67-1.42,10.53-2.18,17.55-2.29c-0.53-0.01-1.06-0.02-1.58-0.02c-7.86,0-14.32,0.77-19.39,2.31c-5.07,1.54-9.1,4.15-12.08,7.83
		c-2.98,3.68-5.1,8.7-6.34,15.07c-1.25,6.37-1.87,14.27-1.87,23.72c0,9.45,0.6,17.31,1.79,23.57
		C225.41,109.93,227.4,114.9,230.18,118.58z"/>
	<path class="st3" d="M234.05,41.3c-2.98,3.68-5.1,8.7-6.34,15.07c-1.25,6.37-1.87,14.27-1.87,23.72c0,9.45,0.6,17.31,1.79,23.57
		c1.19,6.27,3.18,11.24,5.97,14.92c2.78,3.68,6.59,6.32,11.41,7.91c4.55,1.5,10.24,2.29,17.05,2.37c4.67-0.07,8.84-0.36,12.5-0.88
		c4.23-0.6,8.18-1.59,11.86-2.98l-1.84-17.52c-2.4,0.64-4.96,1.19-7.72,1.63c-4.08,0.65-8.2,0.97-12.38,0.97
		c-0.68,0-1.36-0.01-2.03-0.03c-0.46,0.01-0.92,0.03-1.39,0.03c-2.59,0-5.12-0.12-7.61-0.37c-2.49-0.25-4.87-0.67-7.16-1.27V60.55
		c0-4.48,1.14-7.41,3.43-8.8c2.29-1.39,6.21-2.09,11.79-2.09c0.45,0,0.95,0.01,1.47,0.03c0.63-0.02,1.28-0.03,1.95-0.03
		c1.59,0,3.63,0.13,6.12,0.37c2.49,0.25,5.05,0.55,7.68,0.89c1.38,0.18,2.69,0.42,3.95,0.69l2.7-17.03c-1.69-0.6-3.9-1.17-6.64-1.72
		c-2.74-0.55-5.57-0.97-8.5-1.27c-2.33-0.24-4.51-0.38-6.55-0.42c-7.02,0.11-12.88,0.87-17.55,2.29
		C241.06,35.01,237.03,37.62,234.05,41.3z"/>
	<path class="st2" d="M417.69,109.76c0.34,0,0.69,0.01,1.03,0.01c7.26,0,12.38-0.35,15.37-1.04V89.19l-25.81-3.58V73.82l25.81-4.33
		V51.15c-2.79-0.7-7.26-1.04-13.43-1.04c-0.39,0-0.79,0.01-1.18,0.02c5.02,0.08,8.75,0.42,11.19,1.03V69.5l-25.81,4.33v11.79
		l25.81,3.58v19.54C428.02,109.35,423.7,109.69,417.69,109.76z"/>
	<path class="st2" d="M388.14,124.4l2.87-16.79c-1.13-0.21-2.24-0.43-3.31-0.66l-2.98,17.45c5.17,1.39,10.67,2.46,16.49,3.21
		c5.82,0.75,11.41,1.12,16.78,1.12c0.67,0,1.31-0.01,1.95-0.03c-4.92-0.06-10.02-0.41-15.32-1.09
		C398.81,126.86,393.31,125.79,388.14,124.4z"/>
	<path class="st2" d="M407.01,32.27c5.34-0.68,10.52-1.04,15.57-1.1c-0.68-0.01-1.36-0.02-2.06-0.02c-5.47,0-11.11,0.37-16.93,1.12
		c-5.82,0.75-11.36,1.82-16.63,3.21l2.83,17.46c1.07-0.24,2.18-0.46,3.31-0.67l-2.73-16.79C395.65,34.09,401.19,33.02,407.01,32.27z
		"/>
	<path class="st3" d="M434.09,51.15V69.5l-25.81,4.33v11.79l25.81,3.58v19.54c-2.98,0.7-8.11,1.04-15.37,1.04
		c-0.34,0-0.69-0.01-1.03-0.01c-0.77,0.01-1.56,0.01-2.39,0.01c-4.48,0-9.18-0.25-14.1-0.75c-3.63-0.37-7.02-0.84-10.19-1.42
		l-2.87,16.79c5.17,1.39,10.67,2.46,16.49,3.21c5.29,0.68,10.39,1.03,15.32,1.09c7.75-0.12,14.12-0.98,19.08-2.59
		c5.37-1.74,9.3-4.57,11.79-8.5c2.49-3.93,3.73-9.03,3.73-15.29c0-5.47-1.07-10.04-3.21-13.73c-2.14-3.68-5.5-6.51-10.07-8.5v-0.75
		c4.38-2.29,7.68-5.42,9.92-9.4c2.24-3.98,3.36-8.7,3.36-14.17c0-8.35-2.81-14.55-8.43-18.57c-5.28-3.78-13.12-5.79-23.53-6.02
		c-5.05,0.06-10.23,0.41-15.57,1.1c-5.82,0.75-11.36,1.82-16.63,3.21l2.73,16.79c3.17-0.58,6.56-1.06,10.19-1.42
		c4.92-0.5,9.57-0.75,13.95-0.75c0.77,0,1.52,0.01,2.24,0.02c0.39,0,0.79-0.02,1.18-0.02C426.83,50.1,431.3,50.45,434.09,51.15z"/>
	<path class="st2" d="M44.68,213.1c0.75-3.03,2.06-5.77,3.95-8.2c1.89-2.44,4.57-4.82,8.06-7.16c3.48-2.34,8.03-4.8,13.65-7.38
		c5.62-2.59,12.46-5.52,20.51-8.8v-16.11c-1.59-0.4-3.48-0.67-5.67-0.82c-2.19-0.15-4.92-0.22-8.21-0.22
		c-0.33,0-0.69,0.01-1.03,0.01c2.24,0.03,4.18,0.1,5.81,0.21c2.19,0.15,4.08,0.42,5.67,0.82v16.11c-8.06,3.28-14.9,6.22-20.51,8.8
		c-5.62,2.59-10.17,5.05-13.65,7.38c-3.48,2.34-6.17,4.72-8.06,7.16c-1.89,2.44-3.21,5.17-3.95,8.2c-0.75,3.04-1.12,6.49-1.12,10.37
		v17.45h3.42v-17.45C43.56,219.59,43.93,216.13,44.68,213.1z"/>
	<path class="st2" d="M62.28,146.56c5.44-0.69,10.73-1.04,15.89-1.1c-0.68-0.01-1.37-0.02-2.08-0.02c-5.57,0-11.32,0.37-17.23,1.12
		c-5.92,0.75-11.51,1.82-16.78,3.21l2.98,17.46c1.09-0.21,2.2-0.41,3.32-0.61l-2.88-16.85C50.77,148.38,56.36,147.31,62.28,146.56z"
		/>
	<path class="st3" d="M109.66,222.57H64.74h-3.42v-10c8.75-3.58,16.11-6.74,22.08-9.47c5.97-2.73,10.79-5.24,14.47-7.53
		c3.68-2.29,6.49-4.62,8.43-7.01c1.94-2.39,3.26-5.02,3.95-7.91c0.7-2.88,1.05-6.21,1.05-10c0-8.65-2.86-15.02-8.58-19.1
		c-5.39-3.84-13.57-5.87-24.55-6.09c-5.15,0.05-10.44,0.41-15.89,1.1c-5.92,0.75-11.51,1.82-16.78,3.21l2.88,16.85
		c3.57-0.61,7.29-1.1,11.15-1.48c5.07-0.5,9.75-0.75,14.02-0.75c0.83,0,1.63,0,2.39,0.01c0.34,0,0.69-0.01,1.03-0.01
		c3.28,0,6.02,0.07,8.21,0.22c2.19,0.15,4.08,0.42,5.67,0.82v16.11c-8.06,3.28-14.9,6.22-20.51,8.8
		c-5.62,2.59-10.17,5.05-13.65,7.38c-3.48,2.34-6.17,4.72-8.06,7.16c-1.89,2.44-3.21,5.17-3.95,8.2c-0.75,3.04-1.12,6.49-1.12,10.37
		v17.45h66.1V222.57z"/>
	<path class="st2" d="M196.37,243.16c0.59,0,1.17-0.01,1.74-0.01c-5.94-0.07-11.06-0.51-15.33-1.33c-4.68-0.9-8.58-2.39-11.71-4.48
		c-3.13-2.09-5.59-4.97-7.38-8.65c-1.79-3.68-3.06-8.33-3.8-13.95c-0.75-5.62-1.12-12.41-1.12-20.36c0-9.85,0.62-17.95,1.86-24.32
		c1.24-6.36,3.36-11.34,6.34-14.92c2.98-3.58,7.14-6.09,12.46-7.53c4.94-1.34,11.17-2.05,18.65-2.14c-0.57-0.01-1.13-0.02-1.71-0.02
		c-8.26,0-15.04,0.72-20.36,2.16c-5.32,1.44-9.47,3.95-12.46,7.53c-2.98,3.58-5.1,8.56-6.34,14.92c-1.25,6.37-1.86,14.47-1.86,24.32
		c0,7.96,0.37,14.75,1.12,20.36c0.75,5.62,2.01,10.27,3.8,13.95c1.79,3.68,4.25,6.56,7.38,8.65c3.13,2.09,7.04,3.58,11.71,4.48
		C184.04,242.71,189.71,243.16,196.37,243.16z"/>
	<path class="st2" d="M213.38,172.3v51.92h3.42V172.3c0-3.18-0.87-5.3-2.61-6.34c-1.74-1.04-5.1-1.57-10.07-1.57h-3.42
		c4.97,0,8.33,0.52,10.07,1.57C212.51,167,213.38,169.11,213.38,172.3z"/>
	<path class="st3" d="M166.97,155.14c-2.98,3.58-5.1,8.56-6.34,14.92c-1.25,6.37-1.86,14.47-1.86,24.32
		c0,7.96,0.37,14.75,1.12,20.36c0.75,5.62,2.01,10.27,3.8,13.95c1.79,3.68,4.25,6.56,7.38,8.65c3.13,2.09,7.04,3.58,11.71,4.48
		c4.27,0.82,9.39,1.26,15.33,1.33c5.82-0.07,10.89-0.49,15.19-1.25c4.72-0.85,8.63-2.31,11.71-4.4c3.08-2.09,5.52-5,7.31-8.73
		c1.79-3.73,3.03-8.4,3.73-14.02c0.7-5.62,1.04-12.41,1.04-20.36c0-9.94-0.6-18.1-1.79-24.47c-1.19-6.36-3.28-11.31-6.27-14.84
		c-2.98-3.53-7.11-6.02-12.38-7.46c-4.9-1.34-11.1-2.05-18.58-2.14c-7.48,0.09-13.71,0.81-18.65,2.14
		C174.11,149.05,169.96,151.56,166.97,155.14z M200.7,164.39h3.42c4.97,0,8.33,0.52,10.07,1.57c1.74,1.04,2.61,3.16,2.61,6.34v51.92
		h-3.42h-18.96H191c-4.87,0-8.06-0.52-9.55-1.57c-1.49-1.04-2.24-3.16-2.24-6.34v-51.92h3.42H200.7z"/>
	<path class="st2" d="M285.47,167.22c1.09-0.21,2.2-0.41,3.32-0.6l-2.88-16.85c5.27-1.39,10.87-2.46,16.78-3.21
		c5.44-0.69,10.73-1.04,15.89-1.1c-0.68-0.01-1.37-0.02-2.08-0.02c-5.57,0-11.31,0.37-17.23,1.12c-5.92,0.75-11.51,1.82-16.78,3.21
		L285.47,167.22z"/>
	<path class="st2" d="M285.09,213.1c0.75-3.03,2.06-5.77,3.95-8.2c1.89-2.44,4.57-4.82,8.06-7.16c3.48-2.34,8.03-4.8,13.65-7.38
		c5.62-2.59,12.46-5.52,20.51-8.8v-16.11c-1.59-0.4-3.48-0.67-5.67-0.82c-2.19-0.15-4.92-0.22-8.21-0.22
		c-0.33,0-0.69,0.01-1.03,0.01c2.24,0.03,4.18,0.1,5.81,0.21c2.19,0.15,4.08,0.42,5.67,0.82v16.11c-8.06,3.28-14.9,6.22-20.51,8.8
		c-5.62,2.59-10.17,5.05-13.65,7.38c-3.48,2.34-6.17,4.72-8.06,7.16c-1.89,2.44-3.21,5.17-3.95,8.2c-0.75,3.04-1.12,6.49-1.12,10.37
		v17.45h3.42v-17.45C283.97,219.59,284.35,216.13,285.09,213.1z"/>
	<path class="st3" d="M285.91,149.77l2.88,16.85c3.57-0.61,7.29-1.1,11.15-1.48c5.07-0.5,9.75-0.75,14.02-0.75
		c0.83,0,1.63,0,2.4,0.01c0.34,0,0.69-0.01,1.03-0.01c3.28,0,6.02,0.07,8.21,0.22c2.19,0.15,4.08,0.42,5.67,0.82v16.11
		c-8.06,3.28-14.9,6.22-20.51,8.8c-5.62,2.59-10.17,5.05-13.65,7.38c-3.48,2.34-6.17,4.72-8.06,7.16c-1.89,2.44-3.21,5.17-3.95,8.2
		c-0.75,3.04-1.12,6.49-1.12,10.37v17.45h66.1v-18.35h-44.92h-3.42v-10c8.75-3.58,16.11-6.74,22.08-9.47
		c5.97-2.73,10.79-5.24,14.47-7.53c3.68-2.29,6.49-4.62,8.43-7.01c1.94-2.39,3.26-5.02,3.95-7.91c0.7-2.88,1.04-6.21,1.04-10
		c0-8.65-2.86-15.02-8.58-19.1c-5.39-3.84-13.57-5.87-24.55-6.09c-5.15,0.05-10.44,0.41-15.89,1.1
		C296.78,147.31,291.18,148.38,285.91,149.77z"/>
	<rect x="392.78" y="222.57" class="st2" width="3.42" height="18.35"/>
	<polygon class="st2" points="438.58,145.77 438.58,145.44 391.28,149.92 391.28,169.76 394.71,169.43 394.71,149.92 	"/>
	<polygon class="st2" points="419.77,167.37 416.35,167.7 416.35,222.57 419.77,222.57 	"/>
	<polygon class="st3" points="442,222.57 438.58,222.57 438.58,145.77 394.71,149.92 394.71,169.43 416.35,167.37 416.35,167.7 
		419.77,167.37 419.77,222.57 416.35,222.57 396.2,222.57 396.2,240.92 456.78,240.92 456.78,222.57 	"/>
	<path class="st2" d="M72.13,303.89c-0.55-1.39-0.87-2.83-0.97-4.33h-0.9v7.59c0.4,0.74,0.84,1.54,1.35,2.41l28.35,45.65h3.42
		l-28.35-45.65C73.64,307.17,72.67,305.28,72.13,303.89z"/>
	<rect x="44.61" y="261.97" class="st2" width="3.42" height="93.24"/>
	<path class="st2" d="M102.04,317.61h0.9v-55.65h-3.42v47.72c0.76,1.37,1.33,2.55,1.71,3.53
		C101.77,314.66,102.04,316.12,102.04,317.61z"/>
	<path class="st3" d="M102.94,261.97v55.65h-0.9c0-1.49-0.28-2.96-0.82-4.4c-0.37-0.98-0.94-2.16-1.71-3.53v7.93h-0.9
		c0-1.49-0.28-2.96-0.82-4.4c-0.55-1.44-1.52-3.31-2.91-5.59l-28.35-45.65H48.03v93.24h18.81v-55.65h0.9
		c0.1,1.49,0.42,2.93,0.97,4.33c0.35,0.89,0.87,1.98,1.56,3.26v-7.59h0.9c0.1,1.49,0.42,2.93,0.97,4.33
		c0.55,1.39,1.52,3.28,2.91,5.67l28.35,45.65h18.36v-93.24H102.94z"/>
	<path class="st2" d="M202.94,347.53c-3.08-3.63-5.25-8.58-6.49-14.84c-1.25-6.27-1.87-14.27-1.87-24.02
		c0-9.75,0.62-17.78,1.87-24.09c1.24-6.31,3.41-11.29,6.49-14.92c3.08-3.63,7.28-6.19,12.61-7.68c4.94-1.39,11.12-2.12,18.5-2.22
		c-0.57-0.01-1.13-0.02-1.71-0.02c-8.16,0-14.9,0.75-20.22,2.24c-5.32,1.49-9.52,4.05-12.61,7.68c-3.08,3.63-5.25,8.6-6.49,14.92
		c-1.25,6.32-1.87,14.35-1.87,24.09c0,9.75,0.62,17.75,1.87,24.02c1.24,6.27,3.41,11.21,6.49,14.84c3.08,3.63,7.28,6.19,12.61,7.68
		c5.32,1.49,12.06,2.24,20.22,2.24c0.58,0,1.14-0.01,1.71-0.02c-7.38-0.1-13.56-0.83-18.5-2.22
		C210.23,353.72,206.03,351.16,202.94,347.53z"/>
	<path class="st2" d="M253.07,278.68h-3.42v50.43c0,3.48-0.89,5.92-2.69,7.31c-1.79,1.39-4.97,2.09-9.55,2.09h3.42
		c4.57,0,7.76-0.69,9.55-2.09c1.79-1.39,2.69-3.83,2.69-7.31V278.68z"/>
	<path class="st3" d="M265.17,347.53c3.08-3.63,5.24-8.58,6.49-14.84c1.24-6.27,1.86-14.27,1.86-24.02c0-9.75-0.62-17.78-1.86-24.09
		c-1.25-6.31-3.41-11.29-6.49-14.92c-3.08-3.63-7.29-6.19-12.61-7.68c-4.94-1.39-11.12-2.12-18.5-2.22
		c-7.38,0.1-13.56,0.83-18.5,2.22c-5.32,1.49-9.52,4.05-12.61,7.68c-3.08,3.63-5.25,8.6-6.49,14.92
		c-1.25,6.32-1.87,14.35-1.87,24.09c0,9.75,0.62,17.75,1.87,24.02c1.24,6.27,3.41,11.21,6.49,14.84c3.08,3.63,7.28,6.19,12.61,7.68
		c4.94,1.39,11.12,2.12,18.5,2.22c7.38-0.1,13.56-0.83,18.5-2.22C257.88,353.72,262.08,351.16,265.17,347.53z M250.39,336.41
		c-1.79,1.39-4.97,2.09-9.55,2.09h-3.42h-18.96h-3.42v-50.43c0-3.48,0.87-5.92,2.61-7.31c1.74-1.39,4.9-2.09,9.47-2.09h3.42h19.11
		h3.42v50.43C253.07,332.58,252.18,335.02,250.39,336.41z"/>
	<polygon class="st2" points="397.8,296.86 409.19,355.21 412.61,355.21 399.5,288.06 	"/>
	<polygon class="st2" points="335.34,261.97 349.36,355.21 352.78,355.21 338.76,261.97 	"/>
	<polygon class="st2" points="427.53,334.17 437.97,261.97 434.55,261.97 424.97,328.22 426.18,334.17 	"/>
	<polygon class="st2" points="372.77,334.17 387.54,261.97 384.12,261.97 370.57,328.22 371.43,334.17 	"/>
	<polygon class="st3" points="437.97,261.97 427.53,334.17 426.18,334.17 424.97,328.22 424.1,334.17 422.76,334.17 407.99,261.97 
		404.55,261.97 401.13,261.97 394.41,261.97 390.98,261.97 387.54,261.97 372.77,334.17 371.43,334.17 370.57,328.22 369.35,334.17 
		368.01,334.17 357.57,261.97 338.76,261.97 352.78,355.21 383.08,355.21 396.08,288.06 397.8,296.86 399.5,288.06 412.61,355.21 
		442.75,355.21 456.78,261.97 	"/>
	<rect x="96.98" y="431.45" class="st2" width="3.42" height="38.04"/>
	<rect x="43.87" y="376.25" class="st2" width="3.42" height="93.24"/>
	<rect x="96.98" y="376.25" class="st2" width="3.42" height="38.64"/>
	<polygon class="st3" points="100.4,376.25 100.4,414.89 96.98,414.89 69.52,414.89 66.1,414.89 66.1,376.25 47.29,376.25 
		47.29,469.5 66.1,469.5 66.1,431.45 69.52,431.45 96.98,431.45 100.4,431.45 100.4,469.5 119.21,469.5 119.21,376.25 	"/>
	<rect x="169.02" y="376.25" class="st2" width="3.42" height="93.24"/>
	<polygon class="st3" points="191.25,394.6 194.67,394.6 226.76,394.6 229.59,376.25 172.44,376.25 172.44,469.5 229.44,469.5 
		229.44,451.15 194.67,451.15 191.25,451.15 191.25,431.15 194.67,431.15 223.92,431.15 223.92,414.6 194.67,414.6 191.25,414.6 	
		"/>
	<polygon class="st2" points="312.09,439.51 326.25,469.5 329.67,469.5 315.51,439.51 	"/>
	<path class="st2" d="M324.53,395.95c-1.14-0.9-3.26-1.34-6.34-1.34h-3.42c3.08,0,5.2,0.45,6.34,1.34c1.14,0.89,1.72,2.54,1.72,4.92
		v15.67c0,2.39-0.57,4.03-1.72,4.92c-1.14,0.9-3.26,1.34-6.34,1.34h3.42c3.08,0,5.2-0.45,6.34-1.34c1.14-0.89,1.72-2.54,1.72-4.92
		v-15.67C326.24,398.48,325.67,396.84,324.53,395.95z"/>
	<rect x="275.08" y="376.25" class="st2" width="3.42" height="93.24"/>
	<path class="st3" d="M339.46,432.27c4.52-4.82,6.79-12.51,6.79-23.05c0-8.06-1.02-14.49-3.06-19.32c-2.04-4.82-5.32-8.3-9.85-10.44
		c-4.53-2.14-10.52-3.21-17.98-3.21H278.5v93.24h18.81v-29.99h3.42h11.36h3.42l14.16,29.99h20.6l-15.9-33.39
		C336.34,435.07,338.03,433.79,339.46,432.27z M326.24,416.53c0,2.39-0.57,4.03-1.72,4.92c-1.14,0.9-3.26,1.34-6.34,1.34h-3.42
		h-14.03h-3.42v-28.2h3.42h14.03h3.42c3.08,0,5.2,0.45,6.34,1.34c1.14,0.89,1.72,2.54,1.72,4.92V416.53z"/>
	<rect x="393.82" y="376.25" class="st2" width="3.42" height="93.24"/>
	<polygon class="st3" points="416.05,394.6 419.47,394.6 451.56,394.6 454.39,376.25 397.24,376.25 397.24,469.5 454.24,469.5 
		454.24,451.15 419.47,451.15 416.05,451.15 416.05,431.15 419.47,431.15 448.72,431.15 448.72,414.6 419.47,414.6 416.05,414.6 	
		"/>
</g>
<rect x="286.43" y="-67.13" class="st3" width="7.46" height="7.46"/>
<rect x="322.82" y="-171.87" class="st4" width="201.39" height="112.2"/>
</svg>
